<?xml version="1.0" ?><!DOCTYPE svg  PUBLIC '-//W3C//DTD SVG 1.1//EN'  'http://www.w3.org/Graphics/SVG/1.1/DTD/svg11.dtd'><svg enable-background="new 0 0 38 43" height="43px" id="Layer_1" version="1.1" viewBox="0 0 38 43" width="38px" xml:space="preserve" xmlns="http://www.w3.org/2000/svg" xmlns:xlink="http://www.w3.org/1999/xlink"><g><path d="M30.5,0h-23C3.364,0,0,3.288,0,7.33v28.34C0,39.713,3.364,43,7.5,43h23c4.136,0,7.5-3.287,7.5-7.33V7.33   C38,3.288,34.636,0,30.5,0z M33,35.67c0,1.348-1.121,2.33-2.5,2.33h-23C6.122,38,5,37.018,5,35.67V7.33C5,5.982,6.122,5,7.5,5h23   C31.879,5,33,5.982,33,7.33V35.67z" fill="#231F20"/><path d="M28,16H10c-0.552,0-1,0.448-1,1v2c0,0.552,0.448,1,1,1h18c0.553,0,1-0.448,1-1v-2   C29,16.448,28.553,16,28,16z" fill="#231F20"/><path d="M28,23H10c-0.552,0-1,0.447-1,1v2c0,0.553,0.448,1,1,1h18c0.553,0,1-0.447,1-1v-2   C29,23.447,28.553,23,28,23z" fill="#231F20"/><path d="M28,30H10c-0.552,0-1,0.447-1,1v2c0,0.553,0.448,1,1,1h18c0.553,0,1-0.447,1-1v-2   C29,30.447,28.553,30,28,30z" fill="#231F20"/><path d="M28,9H10c-0.552,0-1,0.448-1,1v2c0,0.552,0.448,1,1,1h18c0.553,0,1-0.448,1-1v-2C29,9.448,28.553,9,28,9z" fill="#231F20"/></g></svg>