<?xml version="1.0" ?><svg enable-background="new 0 0 32 32" version="1.1" viewBox="0 0 32 32" xml:space="preserve" xmlns="http://www.w3.org/2000/svg" xmlns:xlink="http://www.w3.org/1999/xlink"><g id="style_1_copy_3"><g><g><path d="M16,0C7.163,0,0,7.163,0,16c0,8.836,7.163,16,16,16s16-7.164,16-16C32,7.163,24.837,0,16,0z" fill="#CCCCCC"/></g><g><path d="M16,0.734C7.569,0.734,0.734,7.569,0.734,16c0,8.431,6.835,15.266,15.266,15.266S31.266,24.431,31.266,16     C31.266,7.569,24.431,0.734,16,0.734z" fill="#FFFFFF"/></g><g><path d="M16,1.359C7.914,1.359,1.359,7.914,1.359,16c0,8.086,6.555,14.641,14.641,14.641S30.641,24.086,30.641,16     C30.641,7.914,24.086,1.359,16,1.359z" fill="#333333"/></g><g><defs><path d="M16,0C7.163,0,0,7.163,0,16c0,8.836,7.163,16,16,16s16-7.164,16-16C32,7.163,24.837,0,16,0z" id="SVGID_105_"/></defs><clipPath id="SVGID_6_"><use overflow="visible" xlink:href="#SVGID_105_"/></clipPath></g><g opacity="0.5"><g><path d="M16,30.058l-0.023-0.413l0.002-0.086c0.657-0.001,1.297-0.046,1.922-0.134l0.07,0.496      C17.323,30.012,16.66,30.058,16,30.058z M13.973,29.912c-0.659-0.095-1.318-0.239-1.958-0.429l0.142-0.479      c0.617,0.182,1.252,0.321,1.888,0.413L13.973,29.912z M19.932,29.5l-0.139-0.48c0.616-0.179,1.227-0.405,1.813-0.672      l0.207,0.455C21.205,29.079,20.572,29.314,19.932,29.5z M10.137,28.779c-0.602-0.275-1.192-0.6-1.756-0.964l0.271-0.42      c0.544,0.351,1.113,0.663,1.693,0.929L10.137,28.779z M23.573,27.846l-0.27-0.422c0.543-0.348,1.064-0.736,1.55-1.156      l0.326,0.379C24.677,27.081,24.136,27.484,23.573,27.846z M6.778,26.611c-0.505-0.439-0.981-0.917-1.415-1.42l0.378-0.326      c0.419,0.484,0.878,0.945,1.365,1.369L6.778,26.611z M26.602,25.231l-0.377-0.328c0.424-0.486,0.815-1.006,1.163-1.544      l0.42,0.271C27.447,24.188,27.041,24.728,26.602,25.231z M4.163,23.585c-0.36-0.56-0.683-1.152-0.96-1.76l0.455-0.207      c0.267,0.586,0.579,1.156,0.926,1.697L4.163,23.585z M28.774,21.876l-0.453-0.209c0.27-0.585,0.498-1.194,0.68-1.81L29.481,20      C29.292,20.638,29.055,21.27,28.774,21.876z M2.503,19.946c-0.187-0.64-0.329-1.299-0.422-1.96l0.495-0.07      c0.09,0.638,0.227,1.273,0.407,1.89L2.503,19.946z M29.91,18.041l-0.494-0.072c0.092-0.629,0.14-1.278,0.143-1.929l0.5,0.002      C30.056,16.716,30.006,17.389,29.91,18.041z M2.441,15.987h-0.5c0.001-0.67,0.049-1.343,0.143-2l0.495,0.07      C2.489,14.691,2.442,15.341,2.441,15.987z M29.427,14.11c-0.089-0.64-0.225-1.276-0.403-1.891l0.48-0.139      c0.185,0.637,0.326,1.297,0.419,1.961L29.427,14.11z M2.99,12.168l-0.479-0.141c0.189-0.642,0.425-1.272,0.703-1.878      l0.454,0.209C3.4,10.941,3.173,11.551,2.99,12.168z M28.354,10.407c-0.266-0.587-0.576-1.159-0.923-1.699l0.42-0.27      c0.36,0.561,0.683,1.153,0.958,1.762L28.354,10.407z M4.597,8.663l-0.42-0.271C4.539,7.83,4.944,7.291,5.379,6.789l0.378,0.328      C5.337,7.602,4.946,8.121,4.597,8.663z M26.275,7.155c-0.42-0.487-0.878-0.948-1.362-1.371l0.328-0.377      c0.503,0.438,0.979,0.916,1.413,1.422L26.275,7.155z M7.125,5.75L6.797,5.373c0.501-0.436,1.042-0.84,1.604-1.202l0.271,0.42      C8.129,4.94,7.609,5.331,7.125,5.75z M23.371,4.619c-0.542-0.352-1.111-0.666-1.692-0.935l0.209-0.453      c0.604,0.277,1.193,0.604,1.755,0.968L23.371,4.619z M10.37,3.663l-0.208-0.455c0.605-0.276,1.238-0.513,1.88-0.701l0.141,0.48      C11.563,3.169,10.953,3.396,10.37,3.663z M19.87,3.003c-0.618-0.184-1.253-0.323-1.889-0.416l0.072-0.494      c0.659,0.096,1.318,0.24,1.959,0.432L19.87,3.003z M14.072,2.578L14,2.084c0.655-0.094,1.328-0.142,2-0.142l0.055,0.5H16      C15.352,2.442,14.703,2.488,14.072,2.578z" fill="#FFFFFF"/></g></g></g></g><g id="style_1_copy_2"><g><path d="M18.226,8.886c-1.59,0.579-2.595,2.071-2.481,3.704l0.038,0.63l-0.636-0.077    c-2.315-0.296-4.338-1.299-6.056-2.984l-0.84-0.836L8.036,9.94c-0.458,1.376-0.165,2.83,0.789,3.808    c0.509,0.54,0.394,0.617-0.483,0.296c-0.305-0.103-0.573-0.18-0.598-0.141c-0.089,0.09,0.216,1.26,0.458,1.724    c0.331,0.644,1.005,1.273,1.743,1.647l0.624,0.296L9.83,17.581c-0.712,0-0.738,0.013-0.661,0.284    c0.254,0.836,1.259,1.724,2.379,2.11l0.789,0.27l-0.687,0.412c-1.018,0.593-2.214,0.927-3.41,0.951    c-0.573,0.013-1.044,0.064-1.044,0.103c0,0.128,1.553,0.848,2.455,1.132c2.71,0.836,5.929,0.475,8.346-0.952    c1.718-1.016,3.435-3.036,4.237-4.992c0.433-1.041,0.865-2.945,0.865-3.858c0-0.592,0.038-0.669,0.75-1.376    c0.42-0.412,0.814-0.862,0.891-0.99c0.128-0.245,0.114-0.245-0.534-0.026c-1.081,0.386-1.234,0.335-0.699-0.244    c0.394-0.412,0.865-1.158,0.865-1.376c0-0.038-0.191,0.026-0.407,0.141c-0.229,0.129-0.738,0.322-1.12,0.437l-0.687,0.219    L21.535,9.4c-0.344-0.231-0.826-0.489-1.081-0.566C19.804,8.654,18.812,8.68,18.226,8.886z" fill="#FFFFFF"/></g></g></svg>