<?xml version="1.0" ?><svg enable-background="new 0 0 32 32" version="1.1" viewBox="0 0 32 32" xml:space="preserve" xmlns="http://www.w3.org/2000/svg" xmlns:xlink="http://www.w3.org/1999/xlink"><g id="style_1_copy_3"><g><g><path d="M16,0C7.163,0,0,7.163,0,16c0,8.836,7.163,16,16,16s16-7.164,16-16C32,7.163,24.837,0,16,0z" fill="#CCCCCC"/></g><g><path d="M16,0.734C7.569,0.734,0.734,7.569,0.734,16c0,8.431,6.835,15.266,15.266,15.266S31.266,24.431,31.266,16     C31.266,7.569,24.431,0.734,16,0.734z" fill="#FFFFFF"/></g><g><path d="M16,1.359C7.914,1.359,1.359,7.914,1.359,16c0,8.086,6.555,14.641,14.641,14.641S30.641,24.086,30.641,16     C30.641,7.914,24.086,1.359,16,1.359z" fill="#333333"/></g><g><defs><path d="M16,0C7.163,0,0,7.163,0,16c0,8.836,7.163,16,16,16s16-7.164,16-16C32,7.163,24.837,0,16,0z" id="SVGID_117_"/></defs><clipPath id="SVGID_6_"><use overflow="visible" xlink:href="#SVGID_117_"/></clipPath></g><g opacity="0.5"><g><path d="M16,30.058l-0.028-0.5H16c0.637,0,1.276-0.045,1.9-0.133l0.07,0.496      C17.323,30.012,16.66,30.058,16,30.058z M13.971,29.912c-0.659-0.095-1.318-0.239-1.959-0.429l0.143-0.479      c0.616,0.182,1.252,0.321,1.889,0.413L13.971,29.912z M19.93,29.501l-0.139-0.48c0.616-0.179,1.227-0.405,1.813-0.672      l0.207,0.455C21.203,29.08,20.571,29.316,19.93,29.501z M10.135,28.78c-0.603-0.276-1.193-0.601-1.756-0.965l0.271-0.42      c0.543,0.351,1.112,0.664,1.693,0.93L10.135,28.78z M23.573,27.846l-0.27-0.422c0.54-0.346,1.062-0.734,1.551-1.155l0.326,0.379      C24.674,27.084,24.133,27.486,23.573,27.846z M6.779,26.61c-0.505-0.438-0.98-0.916-1.416-1.42l0.379-0.326      c0.419,0.484,0.879,0.945,1.365,1.369L6.779,26.61z M26.602,25.233l-0.377-0.328c0.423-0.485,0.814-1.005,1.164-1.544      l0.42,0.271C27.446,24.192,27.04,24.73,26.602,25.233z M4.161,23.585c-0.36-0.561-0.684-1.153-0.96-1.761l0.455-0.207      c0.267,0.586,0.578,1.157,0.925,1.698L4.161,23.585z M28.775,21.876l-0.453-0.209c0.27-0.585,0.498-1.194,0.68-1.81L29.482,20      C29.292,20.638,29.055,21.27,28.775,21.876z M2.502,19.944c-0.187-0.643-0.329-1.303-0.421-1.959l0.494-0.07      c0.09,0.634,0.227,1.27,0.407,1.891L2.502,19.944z M29.911,18.042l-0.494-0.072c0.092-0.629,0.14-1.278,0.143-1.929l0.5,0.002      C30.057,16.717,30.007,17.39,29.911,18.042z M2.441,15.987l-0.5-0.002c0.002-0.672,0.051-1.345,0.145-1.999l0.494,0.07      C2.489,14.689,2.443,15.338,2.441,15.987z M29.427,14.112c-0.089-0.638-0.224-1.274-0.402-1.891l0.48-0.139      c0.185,0.64,0.325,1.299,0.418,1.961L29.427,14.112z M2.991,12.167l-0.48-0.141c0.188-0.637,0.424-1.269,0.702-1.877      l0.455,0.207C3.4,10.944,3.172,11.553,2.991,12.167z M28.355,10.408c-0.266-0.586-0.575-1.157-0.923-1.699l0.422-0.27      c0.359,0.562,0.682,1.155,0.956,1.762L28.355,10.408z M4.598,8.661l-0.42-0.27C4.536,7.833,4.941,7.294,5.38,6.788l0.377,0.328      C5.334,7.604,4.944,8.124,4.598,8.661z M26.278,7.156c-0.418-0.485-0.876-0.947-1.362-1.372l0.33-0.377      c0.504,0.441,0.979,0.92,1.411,1.423L26.278,7.156z M7.124,5.75L6.796,5.371C7.301,4.935,7.841,4.53,8.401,4.17l0.271,0.42      C8.131,4.939,7.611,5.328,7.124,5.75z M23.373,4.619c-0.541-0.352-1.11-0.666-1.691-0.935l0.209-0.453      c0.604,0.278,1.193,0.604,1.754,0.968L23.373,4.619z M10.369,3.662l-0.207-0.455c0.605-0.277,1.238-0.513,1.879-0.701      l0.141,0.48C11.564,3.167,10.954,3.395,10.369,3.662z M19.872,3.002c-0.616-0.183-1.251-0.323-1.889-0.417l0.072-0.494      c0.661,0.097,1.32,0.242,1.959,0.433L19.872,3.002z M14.072,2.577l-0.07-0.494C14.656,1.989,15.328,1.942,16,1.942l0.057,0.5H16      C15.352,2.442,14.703,2.487,14.072,2.577z" fill="#FFFFFF"/></g></g></g></g><g id="style_1_copy_2"><g><path d="M24.299,22.932v-6.137c0-3.288-1.755-4.818-4.096-4.818c-1.889,0-2.735,1.039-3.206,1.768v-1.517h-3.558    c0.047,1.005,0,10.704,0,10.704h3.558v-5.978c0-0.319,0.023-0.639,0.117-0.867c0.257-0.639,0.842-1.301,1.825-1.301    c1.288,0,1.803,0.981,1.803,2.42v5.727L24.299,22.932L24.299,22.932z M9.69,10.767c1.24,0,2.013-0.823,2.013-1.85    c-0.023-1.05-0.773-1.849-1.99-1.849S7.701,7.866,7.701,8.916c0,1.028,0.772,1.85,1.967,1.85H9.69z M11.469,22.932V12.228H7.912    v10.704H11.469z" fill="#FFFFFF"/></g></g></svg>