<?xml version="1.0" ?><svg enable-background="new 0 0 32 32" version="1.1" viewBox="0 0 32 32" xml:space="preserve" xmlns="http://www.w3.org/2000/svg" xmlns:xlink="http://www.w3.org/1999/xlink"><g id="style_1_copy_3"><g><g><path d="M16,0C7.163,0,0,7.163,0,16c0,8.836,7.163,16,16,16s16-7.164,16-16C32,7.163,24.837,0,16,0z" fill="#CCCCCC"/></g><g><path d="M16,0.734C7.569,0.734,0.734,7.569,0.734,16c0,8.431,6.835,15.266,15.266,15.266S31.266,24.431,31.266,16     C31.266,7.569,24.431,0.734,16,0.734z" fill="#FFFFFF"/></g><g><path d="M16,1.359C7.914,1.359,1.359,7.914,1.359,16c0,8.086,6.555,14.641,14.641,14.641S30.641,24.086,30.641,16     C30.641,7.914,24.086,1.359,16,1.359z" fill="#333333"/></g><g><defs><path d="M16,0C7.163,0,0,7.163,0,16c0,8.836,7.163,16,16,16s16-7.164,16-16C32,7.163,24.837,0,16,0z" id="SVGID_135_"/></defs><clipPath id="SVGID_6_"><use overflow="visible" xlink:href="#SVGID_135_"/></clipPath></g><g opacity="0.5"><g><path d="M16,30.058l-0.028-0.5H16c0.636,0,1.276-0.045,1.901-0.133l0.07,0.496      C17.323,30.012,16.66,30.058,16,30.058z M13.972,29.913c-0.659-0.095-1.318-0.239-1.958-0.429l0.142-0.479      c0.617,0.182,1.252,0.321,1.888,0.413L13.972,29.913z M19.931,29.5l-0.139-0.48c0.616-0.179,1.227-0.405,1.813-0.672      l0.207,0.455C21.205,29.079,20.572,29.315,19.931,29.5z M10.136,28.78c-0.603-0.276-1.194-0.601-1.756-0.965l0.271-0.42      c0.542,0.351,1.112,0.664,1.693,0.93L10.136,28.78z M23.574,27.846l-0.27-0.422c0.54-0.346,1.062-0.734,1.551-1.155l0.326,0.379      C24.674,27.084,24.133,27.487,23.574,27.846z M6.778,26.612c-0.505-0.439-0.981-0.917-1.415-1.42l0.378-0.326      c0.419,0.484,0.878,0.945,1.365,1.369L6.778,26.612z M26.602,25.232l-0.377-0.328c0.423-0.485,0.814-1.005,1.164-1.544      l0.42,0.271C27.446,24.191,27.041,24.729,26.602,25.232z M4.162,23.586c-0.361-0.562-0.684-1.154-0.96-1.761l0.455-0.207      c0.267,0.585,0.578,1.156,0.926,1.698L4.162,23.586z M28.774,21.876l-0.453-0.209c0.27-0.585,0.498-1.194,0.68-1.81L29.481,20      C29.292,20.638,29.054,21.27,28.774,21.876z M2.504,19.946c-0.187-0.64-0.329-1.299-0.422-1.96l0.495-0.07      c0.09,0.638,0.227,1.273,0.407,1.89L2.504,19.946z M29.91,18.042l-0.494-0.072c0.092-0.629,0.14-1.278,0.143-1.929l0.5,0.002      C30.055,16.717,30.006,17.39,29.91,18.042z M2.443,15.987h-0.5c0.001-0.67,0.049-1.343,0.143-2l0.495,0.07      C2.49,14.691,2.444,15.34,2.443,15.987z M29.427,14.112c-0.089-0.638-0.224-1.274-0.402-1.891l0.48-0.139      c0.185,0.64,0.325,1.299,0.418,1.961L29.427,14.112z M2.991,12.168l-0.479-0.141c0.189-0.642,0.425-1.272,0.703-1.878      l0.454,0.209C3.402,10.942,3.174,11.551,2.991,12.168z M28.355,10.408c-0.266-0.587-0.576-1.159-0.923-1.699l0.42-0.27      c0.36,0.561,0.683,1.153,0.958,1.762L28.355,10.408z M4.597,8.663l-0.42-0.271C4.539,7.83,4.944,7.291,5.38,6.789l0.378,0.328      C5.337,7.602,4.946,8.121,4.597,8.663z M26.277,7.157C25.858,6.67,25.4,6.208,24.915,5.785l0.328-0.377      c0.504,0.44,0.979,0.919,1.413,1.423L26.277,7.157z M7.126,5.75L6.798,5.373c0.501-0.436,1.042-0.84,1.604-1.202l0.271,0.42      C8.13,4.941,7.609,5.331,7.126,5.75z M23.372,4.619c-0.542-0.352-1.111-0.666-1.692-0.935l0.209-0.453      c0.604,0.277,1.193,0.604,1.755,0.968L23.372,4.619z M10.37,3.662l-0.208-0.455c0.605-0.276,1.238-0.513,1.88-0.701l0.141,0.48      C11.563,3.168,10.953,3.396,10.37,3.662z M19.872,3.002c-0.616-0.183-1.251-0.323-1.889-0.417l0.072-0.494      c0.661,0.097,1.32,0.242,1.959,0.433L19.872,3.002z M14.072,2.577l-0.071-0.494c0.655-0.094,1.328-0.142,2-0.142l0.056,0.501      l-0.07-0.001C15.352,2.442,14.703,2.488,14.072,2.577z" fill="#FFFFFF"/></g></g></g></g><g id="style_1_copy_2"><g id="Cat_3_"><path d="M18.444,26.128h-2.599h-2.602c0,0,0.007-1.544,0-2.602c-3.56,0.766-4.553-1.951-4.553-1.951    c-0.65-1.301-1.301-1.951-1.301-1.951c-1.301-0.773,0-0.65,0-0.65c1.301,0,1.951,1.301,1.951,1.301    c1.142,1.938,3.173,1.626,3.903,1.301c0-0.65,0.285-1.634,0.65-1.951c-2.841-0.32-5.207-1.951-5.207-5.204    s0.653-3.903,1.304-4.553c-0.131-0.321-0.676-1.506,0.02-3.252c0,0,1.278,0,2.579,1.951c0.645-0.645,2.602-0.65,3.253-0.65    c0.649,0,2.607,0.006,3.251,0.65c1.301-1.951,2.582-1.951,2.582-1.951c0.695,1.747,0.152,2.932,0.02,3.252    c0.65,0.65,1.301,1.301,1.301,4.553s-2.362,4.884-5.204,5.204c0.366,0.317,0.65,1.437,0.65,1.951L18.444,26.128L18.444,26.128z" fill="#FFFFFF"/></g></g></svg>