<svg xmlns="http://www.w3.org/2000/svg" viewBox="0 0 77.87 80"><defs><style>.cls-1{fill:#f8981d;}</style></defs><g id="Layer_2" data-name="Layer 2"><g id="Layer_1-2" data-name="Layer 1"><path class="cls-1" d="M32.3,33.17c-.19,1.83-.11,13.07.12,13.73h.92l12.12,0s0,0,.07-.05l.12-.12v-.91q0-6.23,0-12.45s0,0-.05-.07a.29.29,0,0,0-.08-.07Zm20.09-7c0,6.94,0,13.76,0,20.56.87.2,18,.19,18.69,0V7.21C70.26,7,33,7,32.29,7.22v19ZM25.49,53.84V40c0-2.26,0-4.52,0-6.81-.31,0-.51-.07-.7-.07H7.56a7.84,7.84,0,0,0-.82.1V62.14c0,3.27,0,6.55,0,9.82,0,.34,0,.68.07,1.07H45.53c.18-.88.16-18.41,0-19.19ZM77.71,0a7.45,7.45,0,0,1,.15,1q0,25.91,0,51.83c0,.28,0,.57-.06.94H52.44c0,.42,0,.76,0,1.1v25c-.41,0-.74,0-1.07,0H0V26.2H25.5V0Z"/></g></g></svg>