<svg width="939" height="1280" xmlns="http://www.w3.org/2000/svg" preserveAspectRatio="xMidYMid meet">

 <g>
  <title>background</title>
  <rect fill="none" id="canvas_background" height="402" width="582" y="-1" x="-1"/>
 </g>
 <g>
  <title>Layer 1</title>
  <g id="svg_1" fill="#ffffff" transform="translate(0,1280) scale(0.10000000149011612,-0.10000000149011612) ">
   <path stroke="null" id="svg_2" d="m6950,12529c-45,-13 -79,-17 -112,-13c-44,6 -53,3 -125,-42c-126,-78 -191,-139 -208,-196c-8,-30 -46,-93 -97,-162l-83,-114l-150,-46c-226,-68 -270,-78 -390,-85l-110,-7l-120,-66c-66,-37 -181,-89 -255,-117c-74,-27 -161,-61 -194,-74l-59,-24l-89,-159c-49,-88 -158,-263 -244,-389l-155,-231l-8,-128c-8,-123 -10,-129 -38,-157c-16,-16 -56,-41 -88,-54c-36,-15 -59,-30 -57,-37c12,-45 13,-82 2,-108c-20,-47 -61,-63 -170,-66c-109,-4 -120,-11 -142,-99c-16,-66 -40,-92 -106,-112c-71,-23 -101,-62 -171,-231c-29,-70 -85,-186 -124,-259c-61,-114 -87,-150 -195,-270c-113,-126 -129,-148 -179,-253c-35,-75 -69,-131 -97,-160c-40,-41 -44,-50 -50,-111c-10,-110 -30,-158 -93,-231c-32,-36 -69,-82 -83,-102c-14,-19 -36,-41 -50,-48c-32,-16 -40,-28 -40,-55c-1,-110 -153,-326 -326,-464c-36,-29 -64,-59 -64,-69c0,-36 -58,-247 -80,-291c-14,-27 -91,-112 -205,-224c-178,-176 -183,-183 -262,-320c-120,-208 -119,-206 -126,-323c-5,-79 -13,-123 -37,-190c-62,-173 -64,-182 -50,-232c18,-63 15,-81 -25,-147c-19,-32 -35,-67 -35,-78c0,-11 16,-33 36,-50c32,-27 36,-37 45,-105c19,-143 -2,-303 -71,-550c-65,-234 -95,-322 -124,-369c-29,-45 -62,-140 -72,-207l-7,-46l31,7c18,3 36,4 42,0c17,-11 -16,-60 -69,-100c-27,-21 -52,-47 -55,-59c-3,-12 -6,-58 -6,-104c0,-75 2,-85 25,-107c14,-15 36,-25 52,-25c48,-1 110,-36 233,-135c66,-53 122,-100 125,-105c3,-5 7,-58 9,-117c4,-123 22,-182 81,-258c34,-45 35,-48 29,-113c-8,-89 5,-133 70,-231c55,-82 105,-190 128,-274c10,-38 10,-55 -1,-89c-19,-62 -17,-79 20,-172c42,-108 90,-179 159,-235c47,-38 55,-49 53,-75c-2,-28 -1,-28 5,-7c7,24 9,24 47,-24c138,-169 137,-168 251,-229c60,-32 168,-97 239,-145c72,-47 151,-93 176,-102c26,-9 80,-34 120,-54c194,-97 300,-222 349,-412c18,-69 27,-87 69,-130c53,-55 69,-90 127,-282c47,-153 84,-316 84,-370c0,-40 -4,-47 -55,-94c-71,-65 -72,-84 -4,-157c28,-30 54,-64 59,-76c4,-11 4,-54 -1,-95c-13,-115 -14,-109 31,-109c35,0 40,3 40,24c0,35 41,88 75,98c45,12 81,1 175,-52c86,-49 165,-79 176,-67c4,4 -1,33 -10,65c-30,108 -19,146 71,237c61,63 105,132 124,195c9,30 8,47 -5,86c-34,103 -46,197 -36,286c5,45 14,156 19,244c9,156 9,163 -12,205c-17,35 -22,61 -22,124c1,79 2,83 87,270c47,105 129,293 182,418c114,272 115,274 156,312c18,17 41,42 51,57c18,25 19,29 4,57c-18,36 -20,91 -2,113c6,9 91,62 187,119c320,187 373,228 413,319c11,25 31,59 43,76c30,38 30,49 -1,99c-14,22 -25,47 -25,56c0,23 47,62 111,92c82,39 142,109 199,231c27,56 88,163 135,237c95,147 153,255 179,337c18,53 56,88 126,119l25,10l-6,109c-10,152 2,245 35,289c15,19 31,35 37,35c5,0 9,5 9,10c0,18 97,206 140,272c24,38 56,112 84,197c72,216 86,284 96,436c8,145 18,187 72,305c26,59 29,71 23,132c-6,62 -5,71 33,155c30,68 40,105 45,163c3,49 20,121 46,200c84,260 148,507 181,695c19,109 26,133 45,148c55,42 52,138 -6,205c-33,37 -34,43 -16,128c17,79 35,105 105,152l57,38l-3,111c-3,87 0,117 12,142c9,17 58,64 110,105c181,145 286,296 286,415c0,90 17,168 43,203c14,18 27,53 30,77c3,27 17,57 36,81c17,22 31,48 31,60c0,11 17,39 39,63c52,57 61,77 61,134c0,66 29,113 70,113c42,0 54,28 46,107c-10,98 -42,242 -66,298c-35,81 -70,214 -70,264c0,32 -10,67 -31,111c-30,60 -31,68 -26,147c16,219 91,375 271,557c50,51 118,110 150,132c50,33 67,39 113,39c63,0 67,7 61,100c-1,30 1,55 6,55c5,0 7,3 3,6c-3,3 -12,2 -19,-2c-7,-5 -24,-8 -38,-7l-25,2l25,-7c18,-6 21,-10 12,-16c-13,-8 -41,10 -69,44c-7,8 -31,49 -53,92l-40,76l0,132l0,132l-27,-7c-159,-40 -361,-46 -490,-15c-126,30 -195,70 -301,174c-52,50 -125,121 -163,158c-59,58 -70,74 -75,111l-6,44l-104,51c-57,29 -108,52 -112,51c-4,0 -36,-9 -72,-20z"/>
   <path stroke="null" id="svg_4" d="m8405,10788l-80,-83l83,80c76,74 87,85 79,85c-1,0 -38,-37 -82,-82z"/>
   <path stroke="null" id="svg_5" d="m8299,10673c-13,-16 -12,-17 4,-4c16,13 21,21 13,21c-2,0 -10,-8 -17,-17z"/>
   <path stroke="null" id="svg_6" d="m8269,10633c-13,-16 -12,-17 4,-4c9,7 17,15 17,17c0,8 -8,3 -21,-13z"/>
   <path stroke="null" id="svg_7" d="m8151,10384c0,-11 3,-14 6,-6c3,7 2,16 -1,19c-3,4 -6,-2 -5,-13z"/>
   <path stroke="null" id="svg_15" d="m1676,4101c-10,-11 -16,-28 -13,-38c4,-17 5,-17 6,1c0,11 8,28 18,38c9,10 14,18 11,18c-3,0 -13,-9 -22,-19z"/>
   <path stroke="null" id="svg_16" d="m1653,3970c0,-30 2,-43 4,-27c2,15 2,39 0,55c-2,15 -4,2 -4,-28z"/>
   <path stroke="null" id="svg_17" d="m1728,3853c7,-3 16,-2 19,1c4,3 -2,6 -13,5c-11,0 -14,-3 -6,-6z"/>
   <path stroke="null" id="svg_19" d="m2490,2216c0,-2 8,-10 18,-17c15,-13 16,-12 3,4c-13,16 -21,21 -21,13z"/>
   <path stroke="null" id="svg_20" d="m2540,2155c13,-14 26,-25 28,-25c3,0 -5,11 -18,25c-13,14 -26,25 -28,25c-3,0 5,-11 18,-25z"/>
   <path stroke="null" id="svg_21" d="m2580,2126c0,-2 8,-10 18,-17c15,-13 16,-12 3,4c-13,16 -21,21 -21,13z"/>
   <path stroke="null" id="svg_22" d="m2650,2065c19,-19 36,-35 39,-35c3,0 -10,16 -29,35c-19,19 -36,35 -39,35c-3,0 10,-16 29,-35z"/>
   <path stroke="null" id="svg_23" d="m2700,2006c0,-2 8,-10 18,-17c15,-13 16,-12 3,4c-13,16 -21,21 -21,13z"/>
   <path stroke="null" id="svg_24" d="m2730,1966c0,-2 8,-10 18,-17c15,-13 16,-12 3,4c-13,16 -21,21 -21,13z"/>
   <path stroke="null" id="svg_25" d="m2810,1878c41,-45 50,-53 50,-45c0,2 -21,23 -47,47l-48,45l45,-47z"/>
  </g>
 </g>
</svg>